# xmcd
#
# Track frame offsets:
#	150
#	14701
#	31994
#	44925
#	58465
#	71123
#	85121
#	99387
#	114948
#	130754
#
# Disc length: 1937 seconds
#
# Revision: 0
# Processed by: cddbd v1.5.2PL0 Copyright (c) Steve Scherf et al.
# Submitted via: EasyCDDAExtractor 15.3.0.1
#
DISCID=8f078f0a
DTITLE=Champion Jack Dupree - Natural and Soulful Blues
DYEAR=1997
DGENRE=Blues
TTITLE0=Seafood Blues
TTITLE1=Death Of Big Bill Broonzy
TTITLE2=Don't Leave Me, Mary
TTITLE3=Rampart Street Special
TTITLE4=How Long Blues
TTITLE5=Bad Life
TTITLE6=Mother-In-Law Blues
TTITLE7=Slow Drag
TTITLE8=Dennis Rag
TTITLE9=Bad Luck Bound To Change
EXTD=
EXTT0=
EXTT1=
EXTT2=
EXTT3=
EXTT4=
EXTT5=
EXTT6=
EXTT7=
EXTT8=
EXTT9=
PLAYORDER=
